<svg width="345" height="32" viewBox="0 0 345 32" fill="none" xmlns="http://www.w3.org/2000/svg">
<path d="M23.234 23.839C23.542 23.839 23.815 23.958 24.053 24.196L26.279 26.611C25.047 28.137 23.528 29.306 21.722 30.118C19.93 30.93 17.774 31.336 15.254 31.336C13 31.336 10.97 30.951 9.164 30.181C7.372 29.411 5.839 28.34 4.565 26.968C3.291 25.596 2.311 23.958 1.625 22.054C0.953 20.15 0.617 18.071 0.617 15.817C0.617 13.535 0.981 11.449 1.709 9.559C2.437 7.655 3.459 6.017 4.775 4.645C6.105 3.273 7.687 2.209 9.521 1.453C11.355 0.682999 13.385 0.298 15.611 0.298C17.823 0.298 19.783 0.661999 21.491 1.39C23.213 2.118 24.676 3.07 25.88 4.246L23.99 6.871C23.878 7.039 23.731 7.186 23.549 7.312C23.381 7.438 23.143 7.501 22.835 7.501C22.625 7.501 22.408 7.445 22.184 7.333C21.96 7.207 21.715 7.06 21.449 6.892C21.183 6.71 20.875 6.514 20.525 6.304C20.175 6.094 19.769 5.905 19.307 5.737C18.845 5.555 18.306 5.408 17.69 5.296C17.088 5.17 16.388 5.107 15.59 5.107C14.232 5.107 12.986 5.352 11.852 5.842C10.732 6.318 9.766 7.018 8.954 7.942C8.142 8.852 7.512 9.972 7.064 11.302C6.616 12.618 6.392 14.123 6.392 15.817C6.392 17.525 6.63 19.044 7.106 20.374C7.596 21.704 8.254 22.824 9.08 23.734C9.906 24.644 10.879 25.344 11.999 25.834C13.119 26.31 14.323 26.548 15.611 26.548C16.381 26.548 17.074 26.506 17.69 26.422C18.32 26.338 18.894 26.205 19.412 26.023C19.944 25.841 20.441 25.61 20.903 25.33C21.379 25.036 21.848 24.679 22.31 24.259C22.45 24.133 22.597 24.035 22.751 23.965C22.905 23.881 23.066 23.839 23.234 23.839ZM58.4513 15.817C58.4513 18.043 58.0803 20.108 57.3383 22.012C56.6103 23.902 55.5743 25.54 54.2303 26.926C52.8863 28.312 51.2693 29.397 49.3793 30.181C47.4893 30.951 45.3893 31.336 43.0793 31.336C40.7833 31.336 38.6903 30.951 36.8003 30.181C34.9103 29.397 33.2863 28.312 31.9283 26.926C30.5843 25.54 29.5413 23.902 28.7993 22.012C28.0573 20.108 27.6863 18.043 27.6863 15.817C27.6863 13.591 28.0573 11.533 28.7993 9.643C29.5413 7.739 30.5843 6.094 31.9283 4.708C33.2863 3.322 34.9103 2.244 36.8003 1.474C38.6903 0.69 40.7833 0.298 43.0793 0.298C44.6193 0.298 46.0683 0.479999 47.4263 0.843998C48.7843 1.194 50.0303 1.698 51.1643 2.356C52.2983 3 53.3133 3.791 54.2093 4.729C55.1193 5.653 55.8893 6.689 56.5193 7.837C57.1493 8.985 57.6253 10.231 57.9473 11.575C58.2833 12.919 58.4513 14.333 58.4513 15.817ZM52.6763 15.817C52.6763 14.151 52.4523 12.66 52.0043 11.344C51.5563 10.014 50.9193 8.887 50.0933 7.963C49.2673 7.039 48.2593 6.332 47.0693 5.842C45.8933 5.352 44.5633 5.107 43.0793 5.107C41.5953 5.107 40.2583 5.352 39.0683 5.842C37.8923 6.332 36.8843 7.039 36.0443 7.963C35.2183 8.887 34.5813 10.014 34.1333 11.344C33.6853 12.66 33.4613 14.151 33.4613 15.817C33.4613 17.483 33.6853 18.981 34.1333 20.311C34.5813 21.627 35.2183 22.747 36.0443 23.671C36.8843 24.581 37.8923 25.281 39.0683 25.771C40.2583 26.261 41.5953 26.506 43.0793 26.506C44.5633 26.506 45.8933 26.261 47.0693 25.771C48.2593 25.281 49.2673 24.581 50.0933 23.671C50.9193 22.747 51.5563 21.627 52.0043 20.311C52.4523 18.981 52.6763 17.483 52.6763 15.817ZM96.3403 0.633998V31H91.3633V11.386C91.3633 10.602 91.4053 9.755 91.4893 8.845L82.3123 26.086C81.8783 26.912 81.2133 27.325 80.3173 27.325H79.5193C78.6233 27.325 77.9583 26.912 77.5243 26.086L68.2423 8.782C68.2843 9.244 68.3193 9.699 68.3473 10.147C68.3753 10.595 68.3893 11.008 68.3893 11.386V31H63.4123V0.633998H67.6753C67.9273 0.633998 68.1443 0.640998 68.3263 0.654999C68.5083 0.668998 68.6693 0.703998 68.8093 0.759999C68.9633 0.815998 69.0963 0.906998 69.2083 1.033C69.3343 1.159 69.4533 1.327 69.5653 1.537L78.6583 18.4C78.8963 18.848 79.1133 19.31 79.3093 19.786C79.5193 20.262 79.7223 20.752 79.9183 21.256C80.1143 20.738 80.3173 20.241 80.5273 19.765C80.7373 19.275 80.9613 18.806 81.1993 18.358L90.1663 1.537C90.2783 1.327 90.3973 1.159 90.5233 1.033C90.6493 0.906998 90.7823 0.815998 90.9223 0.759999C91.0763 0.703998 91.2443 0.668998 91.4263 0.654999C91.6083 0.640998 91.8253 0.633998 92.0773 0.633998H96.3403ZM112.985 15.901C114.021 15.901 114.924 15.775 115.694 15.523C116.464 15.257 117.101 14.886 117.605 14.41C118.123 13.92 118.508 13.332 118.76 12.646C119.012 11.946 119.138 11.169 119.138 10.315C119.138 9.503 119.012 8.768 118.76 8.11C118.508 7.452 118.13 6.892 117.626 6.43C117.122 5.968 116.485 5.618 115.715 5.38C114.945 5.128 114.035 5.002 112.985 5.002H108.764V15.901H112.985ZM112.985 0.633998C115.015 0.633998 116.772 0.871998 118.256 1.348C119.74 1.824 120.965 2.489 121.931 3.343C122.897 4.197 123.611 5.219 124.073 6.409C124.549 7.599 124.787 8.901 124.787 10.315C124.787 11.785 124.542 13.136 124.052 14.368C123.562 15.586 122.827 16.636 121.847 17.518C120.867 18.4 119.635 19.086 118.151 19.576C116.681 20.066 114.959 20.311 112.985 20.311H108.764V31H103.115V0.633998H112.985ZM143.03 19.534L139.334 9.433C139.152 8.985 138.963 8.453 138.767 7.837C138.571 7.221 138.375 6.556 138.179 5.842C137.997 6.556 137.808 7.228 137.612 7.858C137.416 8.474 137.227 9.013 137.045 9.475L133.37 19.534H143.03ZM153.005 31H148.637C148.147 31 147.748 30.881 147.44 30.643C147.132 30.391 146.901 30.083 146.747 29.719L144.479 23.524H131.9L129.632 29.719C129.52 30.041 129.303 30.335 128.981 30.601C128.659 30.867 128.26 31 127.784 31H123.374L135.323 0.633998H141.077L153.005 31ZM181.748 0.633998V31H178.85C178.402 31 178.024 30.93 177.716 30.79C177.422 30.636 177.135 30.384 176.855 30.034L161 9.79C161.084 10.714 161.126 11.568 161.126 12.352V31H156.149V0.633998H159.11C159.348 0.633998 159.551 0.647998 159.719 0.675997C159.901 0.689998 160.055 0.731998 160.181 0.801998C160.321 0.857999 160.454 0.948999 160.58 1.075C160.706 1.187 160.846 1.341 161 1.537L176.918 21.865C176.876 21.375 176.841 20.892 176.813 20.416C176.785 19.94 176.771 19.499 176.771 19.093V0.633998H181.748ZM201.551 19.24V31H195.923V19.24L184.856 0.633998H189.833C190.323 0.633998 190.708 0.752998 190.988 0.991C191.282 1.229 191.527 1.53 191.723 1.894L197.267 12.037C197.589 12.639 197.869 13.206 198.107 13.738C198.359 14.27 198.583 14.802 198.779 15.334C198.961 14.802 199.171 14.27 199.409 13.738C199.647 13.206 199.92 12.639 200.228 12.037L205.751 1.894C205.905 1.586 206.136 1.299 206.444 1.033C206.752 0.766998 207.144 0.633998 207.62 0.633998H212.618L201.551 19.24ZM249.834 0.633998V31H246.936C246.488 31 246.11 30.93 245.802 30.79C245.508 30.636 245.221 30.384 244.941 30.034L229.086 9.79C229.17 10.714 229.212 11.568 229.212 12.352V31H224.235V0.633998H227.196C227.434 0.633998 227.637 0.647998 227.805 0.675997C227.987 0.689998 228.141 0.731998 228.267 0.801998C228.407 0.857999 228.54 0.948999 228.666 1.075C228.792 1.187 228.932 1.341 229.086 1.537L245.004 21.865C244.962 21.375 244.927 20.892 244.899 20.416C244.871 19.94 244.857 19.499 244.857 19.093V0.633998H249.834ZM272.64 19.534L268.944 9.433C268.762 8.985 268.573 8.453 268.377 7.837C268.181 7.221 267.985 6.556 267.789 5.842C267.607 6.556 267.418 7.228 267.222 7.858C267.026 8.474 266.837 9.013 266.655 9.475L262.98 19.534H272.64ZM282.615 31H278.247C277.757 31 277.358 30.881 277.05 30.643C276.742 30.391 276.511 30.083 276.357 29.719L274.089 23.524H261.51L259.242 29.719C259.13 30.041 258.913 30.335 258.591 30.601C258.269 30.867 257.87 31 257.394 31H252.984L264.933 0.633998H270.687L282.615 31ZM318.686 0.633998V31H313.709V11.386C313.709 10.602 313.751 9.755 313.835 8.845L304.658 26.086C304.224 26.912 303.559 27.325 302.663 27.325H301.865C300.969 27.325 300.304 26.912 299.87 26.086L290.588 8.782C290.63 9.244 290.665 9.699 290.693 10.147C290.721 10.595 290.735 11.008 290.735 11.386V31H285.758V0.633998H290.021C290.273 0.633998 290.49 0.640998 290.672 0.654999C290.854 0.668998 291.015 0.703998 291.155 0.759999C291.309 0.815998 291.442 0.906998 291.554 1.033C291.68 1.159 291.799 1.327 291.911 1.537L301.004 18.4C301.242 18.848 301.459 19.31 301.655 19.786C301.865 20.262 302.068 20.752 302.264 21.256C302.46 20.738 302.663 20.241 302.873 19.765C303.083 19.275 303.307 18.806 303.545 18.358L312.512 1.537C312.624 1.327 312.743 1.159 312.869 1.033C312.995 0.906998 313.128 0.815998 313.268 0.759999C313.422 0.703998 313.59 0.668998 313.772 0.654999C313.954 0.640998 314.171 0.633998 314.423 0.633998H318.686ZM331.131 5.128V13.549H341.757V17.896H331.131V26.485H344.613V31H325.461V0.633998H344.613V5.128H331.131Z" fill="black"/>
</svg>
