<svg xmlns="http://www.w3.org/2000/svg" xmlns:xlink="http://www.w3.org/1999/xlink" version="1.1" width="842pt" height="595pt" viewBox="0 0 842 595">
<defs fill="#000000">
<clipPath id="clip_0" fill="#000000">
<path transform="matrix(.12,0,0,-.12,0,595)" d="M0 0H7015V4960H0V0" fill="#000000"/>
</clipPath>
<clipPath id="clip_1" fill="#000000">
<path transform="matrix(.12,0,0,-.12,0,595)" d="M0 0H7015V4960H0V0" fill="#000000"/>
</clipPath>
<clipPath id="clip_2" fill="#000000">
<path transform="matrix(.12,0,0,-.12,0,595)" d="M0 0H7015V4960H0V0" fill="#000000"/>
</clipPath>
</defs>
<g clip-path="url(#clip_0)">
</g>
<g clip-path="url(#clip_1)">
<g id="layer_1" data-name="DPD_kote">
<text xml:space="preserve" transform="matrix(.12 0 -0 .12 0 595)" font-size="1495.655" font-family="Calibri" font-weight="bold" fill="#000000"><tspan y="-2338" x="1586" fill="#000000">T</tspan></text>
</g>
<g clip-path="url(#clip_2)">
<text xml:space="preserve" transform="matrix(.12 0 -0 .12 0 595)" font-size="1495.655" font-family="Calibri" font-weight="bold" fill="#000000"><tspan y="-2338" x="2567" fill="#000000">R</tspan></text>
<text xml:space="preserve" transform="matrix(.12 0 -0 .12 0 595)" font-size="1495.655" font-family="Calibri" font-weight="bold" fill="#000000"><tspan y="-2338" x="3649" fill="#000000">I</tspan></text>
<text xml:space="preserve" transform="matrix(.12 0 -0 .12 0 595)" font-size="1495.655" font-family="Calibri" font-weight="bold" fill="#000000"><tspan y="-2338" x="4288" fill="#000000">A</tspan></text>
<text xml:space="preserve" transform="matrix(.12 0 -0 .12 0 595)" font-size="1495.655" font-family="Calibri" font-weight="bold" fill="#000000"><tspan y="-2338" x="5435" fill="#000000">L</tspan></text>
<path transform="matrix(.12,0,0,-.12,0,595)" stroke-width="24" stroke-linecap="round" stroke-linejoin="round" fill="none" stroke="#000000" d="M507 2149H6270V3470H507V2149"/>
</g>
<!-- <g id="layer_1" data-name="0">
<path transform="matrix(.12,0,0,-.12,0,595)" stroke-width="6" stroke-linecap="round" stroke-linejoin="round" fill="none" stroke="#000000" d="M0 0V4959H7014V0H0"/>
</g> -->
<g id="layer_1" data-name="DPD_kote">
<path transform="matrix(.12,0,0,-.12,0,595)" d="M1444 3305H685L1444 2314ZM685 3305 1444 2314H685Z" fill="#000000"/>
<path transform="matrix(.12,0,0,-.12,0,595)" stroke-width="0" stroke-linecap="round" stroke-miterlimit="10" stroke-linejoin="miter" fill="none" stroke="#000000" d="M1444 3305H685L1444 2314ZM685 3305 1444 2314H685Z"/>
<path transform="matrix(.12,0,0,-.12,0,595)" stroke-width="1" stroke-linecap="round" stroke-linejoin="round" fill="none" stroke="#000000" d="M685 3305H1444V2314H685V3305"/>
</g>
<g id="layer_1" data-name="0">
<path transform="matrix(.12,0,0,-.12,0,595)" stroke-width="17" stroke-linecap="round" stroke-linejoin="round" fill="none" stroke="#000000" d="M1258 2365H1387V2472H1258V2365"/>
<path transform="matrix(.12,0,0,-.12,0,595)" stroke-width="17" stroke-linecap="round" stroke-linejoin="round" fill="none" stroke="#000000" d="M871 2365H742V2472H871V2365"/>
<path transform="matrix(.12,0,0,-.12,0,595)" stroke-width="17" stroke-linecap="round" stroke-linejoin="round" fill="none" stroke="#000000" d="M806 2966V2472H1323V2966"/>
<path transform="matrix(.12,0,0,-.12,0,595)" stroke-width="17" stroke-linecap="round" stroke-linejoin="round" fill="none" stroke="#000000" d="M873 2514H1256V2818H873V2514"/>
<path transform="matrix(.12,0,0,-.12,0,595)" stroke-width="17" stroke-linecap="round" stroke-linejoin="round" fill="none" stroke="#000000" d="M806 2966 1065 3244 1323 2966"/>
<path transform="matrix(.12,0,0,-.12,0,595)" stroke-width="17" stroke-linecap="round" stroke-linejoin="round" fill="none" stroke="#000000" d="M861 2927 1065 3147 1268 2927V2864H861V2927"/>
</g>
</g>
</svg>